<?xml version="1.0" standalone="no"?>
<!DOCTYPE svg PUBLIC "-//W3C//DTD SVG 20010904//EN"
 "http://www.w3.org/TR/2001/REC-SVG-20010904/DTD/svg10.dtd">
<svg version="1.0" xmlns="http://www.w3.org/2000/svg"
 width="225.000000pt" height="225.000000pt" viewBox="0 0 225.000000 225.000000"
 preserveAspectRatio="xMidYMid meet">
<metadata>
Created by potrace 1.11, written by Peter Selinger 2001-2013
</metadata>
<g transform="translate(0.000000,225.000000) scale(0.100000,-0.100000)"
fill="#000000" stroke="none">
<path d="M940 2235 c-229 -39 -444 -150 -610 -315 -440 -440 -440 -1150 0
-1590 440 -440 1150 -440 1590 0 440 440 440 1150 0 1590 -256 255 -627 375
-980 315z m349 -70 c236 -39 429 -141 596 -316 396 -417 388 -1060 -19 -1465
-423 -421 -1099 -411 -1507 23 -391 416 -381 1058 23 1461 241 242 575 351
907 297z"/>
<path d="M995 2149 c-148 -19 -314 -81 -442 -166 -84 -55 -213 -183 -273 -269
-201 -290 -241 -653 -109 -978 97 -238 315 -460 546 -556 133 -55 215 -72 373
-77 118 -4 163 -1 241 15 264 54 506 219 652 442 65 100 99 174 134 290 35
116 44 345 18 471 -41 205 -129 372 -275 519 -106 108 -183 164 -304 221 -175
82 -368 112 -561 88z m195 -123 c0 -3 -4 -8 -10 -11 -5 -3 -10 -1 -10 4 0 6 5
11 10 11 6 0 10 -2 10 -4z m-106 -68 c15 -123 19 -117 -49 -63 -69 54 -68 54
-61 -6 4 -34 3 -48 -2 -39 -5 8 -12 43 -15 77 l-5 62 61 -50 c67 -53 74 -51
58 19 -5 23 -5 42 -1 42 5 0 11 -19 14 -42z m98 -42 c-3 -62 -6 -74 -19 -69
-9 4 -13 13 -9 27 3 11 6 44 6 73 0 38 3 51 13 48 8 -4 11 -27 9 -79z m83 19
c4 -30 11 -57 14 -60 4 -2 21 18 37 45 16 27 32 50 37 50 12 0 9 -7 -40 -77
l-47 -67 -11 54 c-6 30 -15 67 -18 83 -6 20 -4 27 7 27 10 0 17 -17 21 -55z
m-355 -79 c0 -48 -71 -75 -102 -38 -8 9 -22 38 -31 64 -12 38 -13 47 -2 52 8
3 15 -6 19 -27 14 -77 65 -119 97 -81 11 14 10 25 -7 75 -12 32 -19 61 -16 64
7 7 42 -84 42 -109z m514 56 c-13 -25 -12 -29 9 -45 l22 -18 -22 10 c-18 9
-24 8 -33 -8 -5 -11 -10 -26 -10 -34 0 -17 27 -30 43 -21 9 5 9 4 1 -5 -18
-19 -78 14 -69 37 4 9 16 40 27 69 13 33 25 50 33 47 11 -4 10 -11 -1 -32z
m51 8 c3 -6 -1 -7 -9 -4 -18 7 -21 14 -7 14 6 0 13 -4 16 -10z m125 -87 c0
-15 -9 -27 -23 -34 -21 -9 -23 -15 -17 -47 4 -22 11 -36 19 -34 7 1 10 -2 6
-8 -4 -6 -1 -19 6 -28 7 -9 -1 -4 -18 12 -22 20 -33 40 -35 64 -4 43 -24 53
-39 19 -6 -14 -17 -23 -24 -20 -10 3 -2 23 27 69 l40 64 29 -17 c19 -11 29
-26 29 -40z m-947 27 c-32 -13 -29 -38 5 -46 55 -11 72 -23 72 -48 0 -14 -9
-32 -22 -40 -27 -19 -34 -20 -41 -3 -3 8 4 13 22 12 19 0 26 5 26 20 0 14 -11
22 -44 32 -41 12 -60 26 -61 45 0 13 32 38 48 37 12 0 11 -3 -5 -9z m1053 -82
l19 -23 -22 18 c-30 26 -44 13 -42 -38 3 -46 -13 -75 -39 -75 -13 0 -13 2 3
13 15 11 17 22 12 55 -11 65 31 95 69 50z m-1121 -4 c18 -7 45 -55 45 -79 0
-25 -55 -75 -83 -75 -13 0 -36 9 -51 21 -20 16 -26 28 -25 57 1 22 3 28 6 15
12 -62 95 -96 127 -52 16 24 12 44 -17 77 -20 22 -72 30 -93 15 -5 -5 -1 0 9
10 20 17 53 22 82 11z m1215 -34 c0 -5 -5 -10 -11 -10 -5 0 -7 5 -4 10 3 6 8
10 11 10 2 0 4 -4 4 -10z m-533 -35 c68 -20 146 -90 170 -153 43 -112 4 -246
-91 -309 -93 -63 -179 -67 -283 -15 -163 83 -297 93 -412 32 -74 -40 -127 -97
-145 -160 -12 -40 -14 -43 -21 -21 -10 33 3 123 31 213 61 192 226 350 429
409 78 23 252 25 322 4z m505 5 c1 -14 -103 -105 -110 -98 -6 6 12 30 42 58
45 43 67 56 68 40z m81 -90 c39 -53 43 -60 27 -60 -5 0 -10 6 -10 14 0 30 -23
27 -76 -9 -42 -29 -58 -35 -66 -27 -7 7 -8 12 -2 12 6 0 33 17 62 38 l51 39
-22 21 c-12 12 -17 22 -11 22 5 0 26 -22 47 -50z m-351 -20 c114 -86 199 -220
234 -368 56 -235 -64 -547 -239 -622 -174 -76 -365 47 -366 235 0 96 44 173
134 230 140 90 221 203 232 322 7 80 -17 162 -64 213 -52 59 -15 53 69 -10z
m-1059 11 c10 -26 13 -28 55 -23 32 4 43 2 38 -7 -4 -6 -27 -11 -52 -11 -49 0
-59 -18 -23 -44 12 -8 18 -19 15 -25 -9 -14 -127 78 -119 93 30 53 69 61 86
17z m1490 -126 c9 -19 13 -35 8 -35 -5 0 -12 11 -15 25 -6 22 -9 23 -31 13
-14 -6 -25 -16 -25 -21 0 -6 -3 -8 -6 -4 -8 8 -64 -20 -64 -33 0 -5 7 -16 16
-24 9 -9 11 -16 4 -16 -6 0 -17 15 -25 33 l-14 32 62 32 c34 18 65 32 68 33 3
0 13 -16 22 -35z m-1528 -10 c36 -35 29 -89 -14 -122 -45 -34 -121 7 -121 65
0 74 84 109 135 57z m1480 -34 c3 -5 1 -12 -5 -16 -5 -3 -10 1 -10 9 0 18 6
21 15 7z m86 -58 c12 -16 12 -17 -2 -5 -19 14 -26 8 -53 -45 -27 -53 -94 -38
-83 19 4 21 4 20 6 -4 0 -15 5 -29 10 -32 15 -10 40 5 47 27 8 28 34 57 49 57
7 0 19 -8 26 -17z m10 -46 c-10 -9 -11 -8 -5 6 3 10 9 15 12 12 3 -3 0 -11 -7
-18z m-1736 -24 c0 -26 4 -28 63 -41 36 -8 62 -19 62 -26 0 -11 -11 -10 -52 0
-29 8 -60 14 -69 14 -18 0 -33 -26 -23 -41 3 -5 0 -9 -5 -9 -13 0 -13 0 0 58
19 81 25 93 24 45z m1714 -59 c-27 -7 -61 -15 -74 -18 -18 -5 -25 -2 -25 9 0
9 9 15 23 16 12 0 42 6 67 13 30 8 47 8 52 1 5 -6 -12 -14 -43 -21z m81 26 c0
-5 -5 -10 -11 -10 -5 0 -7 5 -4 10 3 6 8 10 11 10 2 0 4 -4 4 -10z m-1163 -62
c53 -25 116 -94 130 -145 6 -21 16 -82 22 -135 22 -198 99 -313 242 -363 49
-18 132 -20 161 -4 16 9 19 8 16 -3 -2 -7 -27 -25 -54 -40 -124 -68 -321 -82
-471 -34 -93 30 -210 103 -268 167 -86 96 -155 239 -155 323 0 190 202 316
377 234z m475 -845 c25 -22 24 -84 -3 -114 -19 -23 -20 -23 -10 -2 18 36 13
85 -11 110 -25 27 -5 33 24 6z m-392 3 c0 -2 -7 -7 -16 -10 -8 -3 -12 -2 -9 4
6 10 25 14 25 6z m332 -26 c-3 -24 0 -32 19 -39 22 -9 22 -10 4 -10 -25 -1
-45 17 -45 39 0 12 17 40 25 40 1 0 0 -13 -3 -30z m-294 8 c21 -21 13 -46 -29
-82 l-41 -35 25 -6 c14 -4 32 -4 39 1 10 5 10 4 1 -6 -7 -8 -24 -10 -53 -5
l-41 7 40 34 c45 39 58 68 41 89 -15 18 1 20 18 3z m257 -53 c17 -69 -43 -125
-79 -73 -21 30 -21 101 1 119 15 13 15 12 4 -8 -8 -16 -8 -35 -2 -64 11 -48
24 -64 45 -56 22 9 20 64 -3 111 l-20 38 22 -15 c12 -8 26 -31 32 -52z m-141
39 c24 -23 21 -99 -4 -124 -25 -25 -35 -25 -61 1 -17 17 -20 30 -16 65 7 69
44 95 81 58z"/>
<path d="M1537 1841 c-18 -30 -14 -41 14 -41 20 0 36 41 24 59 -10 17 -20 13
-38 -18z"/>
<path d="M981 1695 c-225 -49 -406 -227 -466 -460 -23 -91 -20 -105 13 -59
116 159 321 183 549 63 134 -70 301 -8 347 129 41 119 -8 248 -113 301 -81 41
-211 51 -330 26z m237 -250 c33 -39 30 -98 -7 -136 -63 -63 -171 -20 -171 68
0 99 113 142 178 68z"/>
<path d="M1079 1441 c-32 -33 -36 -58 -14 -100 20 -40 66 -57 105 -41 33 14
60 55 60 90 0 33 -53 80 -90 80 -22 0 -41 -9 -61 -29z"/>
<path d="M1484 1567 c31 -63 35 -193 7 -269 -27 -70 -108 -159 -211 -231 -97
-68 -130 -122 -130 -217 0 -234 261 -333 427 -163 58 59 123 182 144 273 17
76 15 212 -4 287 -33 126 -132 275 -227 343 l-27 19 21 -42z"/>
<path d="M374 1608 c-7 -11 29 -48 47 -48 16 0 22 30 9 45 -15 18 -46 20 -56
3z"/>
<path d="M297 1462 c-27 -30 -18 -64 23 -85 44 -24 86 -11 96 29 14 54 -81 98
-119 56z"/>
<path d="M685 1219 c-34 -13 -92 -54 -117 -84 -93 -109 -44 -319 112 -475 78
-77 187 -138 300 -166 89 -22 240 -15 334 17 l69 23 -60 12 c-74 15 -131 43
-184 91 -77 70 -114 163 -128 324 -12 132 -48 196 -136 241 -46 24 -146 33
-190 17z"/>
<path d="M1060 331 c-14 -28 -12 -84 4 -106 12 -16 16 -17 30 -6 16 14 22 83
10 115 -8 22 -31 20 -44 -3z"/>
</g>
</svg>
